# Rhino

v 3.1028182506561279 12.090033531188965 3
v 3.1028182506561279 12.090033531188965 0
v 4.042510986328125 11.748013496398926 3
v 4.042510986328125 11.748013496398926 0
v 4.982203483581543 11.405993461608887 3
v 4.982203483581543 11.405993461608887 0
vt 0 0
vt 0 1
vt 0.5 0
vt 0.5 1
vt 1 0
vt 1 1
vn 0.34202015399932861 0.93969261646270752 0
vn 0.34202015399932861 0.93969261646270752 0
vn 0.34202015399932861 0.93969261646270752 0
vn 0.34202015399932861 0.93969261646270752 0
vn 0.34202015399932861 0.93969261646270752 0
vn 0.34202015399932861 0.93969261646270752 0
f 4/4/4 2/2/2 1/1/1 3/3/3 5/5/5 6/6/6
